<svg width="191" height="72" viewBox="0 0 191 72" fill="none" xmlns="http://www.w3.org/2000/svg">
<path d="M45.7188 37.3281C46.8125 40.2969 47.3594 43.0781 47.3594 45.6719C47.3594 48.9219 46.4688 51.7812 44.6875 54.25C42.3438 57.375 39.4531 58.9375 36.0156 58.9375C33.5469 58.9375 30.7656 58.2031 27.6719 56.7344C24.6094 55.2656 22.0625 53.625 20.0312 51.8125L19.9844 51.9062L19.8438 51.625L19.1406 50.9688C18.4531 52.125 18.0312 52.8281 17.875 53.0781C15.4375 56.7344 12.1719 58.6406 8.07812 58.7969C6.76562 57.9844 5.53125 56.4375 4.375 54.1562C3.25 51.8438 2.375 49.2969 1.75 46.5156C1.125 43.7031 0.859375 41.2344 0.953125 39.1094C3.10938 37.2031 5.46875 35.8281 8.03125 34.9844C9 35.2656 9.95312 35.6875 10.8906 36.25C11.8594 36.7812 12.9844 37.5781 14.2656 38.6406C16.5469 36.3906 19.1875 33.5312 22.1875 30.0625C25.1875 26.5938 27.2656 24 28.4219 22.2812L28.2812 19.7969L18.4844 16.2812L17.0312 16.8438L15.2969 29.8281C13.4531 30.4844 11.7031 30.8125 10.0469 30.8125C8.89062 30.8125 7.48438 30.5781 5.82812 30.1094C4.92188 28.2969 4.04688 25.9375 3.20312 23.0312C2.39062 20.0938 1.98438 17.4062 1.98438 14.9688C1.98438 12.8125 2.35938 11.0938 3.10938 9.8125C4.26562 8.65625 6.0625 7.42188 8.5 6.10938C10.9688 4.76562 13.5312 3.64062 16.1875 2.73438C18.8438 1.82813 21.0625 1.375 22.8438 1.375C24.8438 1.5 27.25 1.95312 30.0625 2.73438C32.9062 3.48438 35.6875 4.53125 38.4062 5.875C41.1562 7.21875 43.375 8.78125 45.0625 10.5625C45.75 13.375 46.0938 15.9531 46.0938 18.2969C46.0938 19.7969 45.9531 21.4219 45.6719 23.1719C44.2969 24.9531 42.2188 27.0156 39.4375 29.3594C36.6562 31.7031 33.75 33.9375 30.7188 36.0625C27.7188 38.1562 25.2656 39.7344 23.3594 40.7969L23.4062 41.2656L34.5625 42.6719L38.7812 36.0156L45.7188 37.3281ZM77.9688 2.45312C86.75 2.45312 92.875 4.98438 96.3438 10.0469C99.8438 15.1094 101.516 22.0156 101.359 30.7656C101.266 36.1406 100.359 40.9375 98.6406 45.1562C96.9531 49.375 94.2969 52.7344 90.6719 55.2344C87.0781 57.7031 82.5156 58.9375 76.9844 58.9375C68.7969 58.9375 62.875 56.4688 59.2188 51.5312C55.5625 46.5625 53.7344 39.9375 53.7344 31.6562C53.7344 22.875 55.6562 15.8125 59.5 10.4688C63.3438 5.125 69.5 2.45312 77.9688 2.45312ZM71.6406 18.1562C70.7656 22.2188 70.3281 26.3125 70.3281 30.4375C70.3281 35 70.7969 39.6562 71.7344 44.4062C73.7656 45.7812 76.5312 46.8438 80.0312 47.5938L82.9375 45.5781C83.6875 41.3906 84.0625 37.5156 84.0625 33.9531C84.0625 31.5156 83.9219 29 83.6406 26.4062C83.3906 23.7812 83.0156 21.4062 82.5156 19.2812L74.875 16.6094L71.6406 18.1562ZM134.219 8.40625C134.031 12.75 133.562 18.0312 132.812 24.25C132.062 30.4375 131.156 35.8906 130.094 40.6094C131.062 43.7031 131.859 46.4062 132.484 48.7188C133.109 51.0312 133.625 53.7812 134.031 56.9688C133.125 57.6562 131.953 58.1562 130.516 58.4688C129.109 58.7812 127.578 58.9375 125.922 58.9375C123.953 58.9375 121.828 58.75 119.547 58.375C117.266 58.0312 115.688 57.5625 114.812 56.9688L118.422 31.5156L117.016 22L108.062 23.5469L104.828 16.5625C107.234 13.5 110.406 10.6562 114.344 8.03125C118.312 5.375 122.344 3.59375 126.438 2.6875C129.25 4.34375 131.844 6.25 134.219 8.40625ZM175.422 32.3125C172.359 35.7188 169.234 38.6406 166.047 41.0781C162.859 43.4844 159.703 44.6875 156.578 44.6875C154.359 44.6875 152.25 43.9531 150.25 42.4844C148.25 41.0156 146.594 38.9219 145.281 36.2031C143.969 33.4531 143.156 30.2656 142.844 26.6406C142.75 25.6406 142.703 24.6719 142.703 23.7344C142.703 19.1094 143.672 15.0313 145.609 11.5C147.547 7.96875 150.391 5.23437 154.141 3.29688C157.891 1.32812 162.406 0.34375 167.688 0.34375C175.469 0.34375 181.219 2.92188 184.938 8.07812C188.656 13.2344 190.516 20.25 190.516 29.125C190.516 30.4688 190.469 31.8438 190.375 33.25C189.062 38.8125 186.688 43.9531 183.25 48.6719C179.812 53.3906 176.141 57.4219 172.234 60.7656C168.328 64.1406 163.703 67.7656 158.359 71.6406C156.547 70.7344 155.109 69.6562 154.047 68.4062C153.016 67.1875 151.938 65.3906 150.812 63.0156C152.969 60.6719 154.75 58.7812 156.156 57.3438C161.094 52.0938 165.125 47.6562 168.25 44.0312C171.406 40.375 174.141 36.6562 176.453 32.875L175.422 32.3125ZM174.109 26.125C174.078 23.75 173.969 21.9062 173.781 20.5938C173.594 19.25 173.219 17.6094 172.656 15.6719C171.75 14.8594 170.453 14.0938 168.766 13.375C167.078 12.625 165.625 12.1719 164.406 12.0156L161.453 14.0312C160.922 16.5938 160.656 19.3594 160.656 22.3281C160.656 25.9219 161.078 29.5781 161.922 33.2969L174.109 26.125Z" fill="white"/>
</svg>
