<svg width="78" height="78" viewBox="0 0 78 78" fill="none" xmlns="http://www.w3.org/2000/svg">
<path d="M21.6937 34.0365H4.875V65.724H73.6125V59.6302" stroke="white" stroke-width="1.5" stroke-linecap="round" stroke-linejoin="round"/>
<path d="M73.6124 41.349V34.0365H20.9624" stroke="white" stroke-width="1.5" stroke-linecap="round" stroke-linejoin="round"/>
<path d="M73.6125 34.0365L38.2688 17.2177C33.4268 14.7568 27.8907 14.0194 22.5734 15.1271C17.2561 16.2349 12.4751 19.1217 9.01878 23.3115C6.43834 26.2994 4.97386 30.0897 4.875 34.0365" stroke="white" stroke-width="1.5" stroke-linecap="round" stroke-linejoin="round"/>
<path d="M24.6189 58.4115C28.9267 58.4115 32.4189 54.9193 32.4189 50.6115C32.4189 46.3037 28.9267 42.8115 24.6189 42.8115C20.3111 42.8115 16.8188 46.3037 16.8188 50.6115C16.8188 54.9193 20.3111 58.4115 24.6189 58.4115Z" stroke="white" stroke-width="1.5" stroke-linecap="round" stroke-linejoin="round"/>
<path d="M48.7501 55.7302C51.5771 55.7302 53.8689 53.4385 53.8689 50.6115C53.8689 47.7845 51.5771 45.4927 48.7501 45.4927C45.9231 45.4927 43.6313 47.7845 43.6313 50.6115C43.6313 53.4385 45.9231 55.7302 48.7501 55.7302Z" stroke="white" stroke-width="1.5" stroke-miterlimit="10"/>
<path d="M73.6127 59.6302C72.2873 59.8474 70.9305 59.7737 69.6364 59.4143C68.3424 59.0549 67.1419 58.4184 66.1183 57.5489C65.0947 56.6793 64.2725 55.5976 63.7086 54.3786C63.1447 53.1597 62.8525 51.8327 62.8525 50.4896C62.8525 49.1465 63.1447 47.8195 63.7086 46.6006C64.2725 45.3817 65.0947 44.2999 66.1183 43.4304C67.1419 42.5609 68.3424 41.9243 69.6364 41.5649C70.9305 41.2055 72.2873 41.1318 73.6127 41.349" stroke="white" stroke-width="1.5" stroke-linecap="round" stroke-linejoin="round"/>
</svg>
