<svg width="572" height="357" viewBox="0 0 572 357" fill="none" xmlns="http://www.w3.org/2000/svg">
<path d="M37.7882 61.1825L33.7811 51.335L28.5419 62.9401L16.1892 60.7526L18.6412 73.1857L7.37927 78.6565L17.3582 82.3242" stroke="white" stroke-width="1.5" stroke-linecap="round" stroke-linejoin="round"/>
<path d="M37.8252 81.9739L40.1019 84.174" stroke="white" stroke-width="1.5" stroke-linecap="round" stroke-linejoin="round"/>
<path d="M27.8594 88.3821L30.2988 90.7394" stroke="white" stroke-width="1.5" stroke-linecap="round" stroke-linejoin="round"/>
<path d="M43.8887 71.7942L46.3281 74.1515" stroke="white" stroke-width="1.5" stroke-linecap="round" stroke-linejoin="round"/>
<path d="M48.417 84.0322L50.8564 86.3895" stroke="white" stroke-width="1.5" stroke-linecap="round" stroke-linejoin="round"/>
<path d="M40.0879 92.6516L42.5273 95.0089" stroke="white" stroke-width="1.5" stroke-linecap="round" stroke-linejoin="round"/>
<path d="M53.726 104.573C54.7613 104.659 55.8027 104.514 56.775 104.148C57.7474 103.783 58.6262 103.205 59.3481 102.458C60.07 101.711 60.6169 100.813 60.9492 99.8288C61.2814 98.8445 61.3908 97.7987 61.2694 96.767L59.6508 76.9623C59.239 72.3267 57.1787 67.9925 53.8439 64.7465C52.5619 63.466 51.0402 62.4506 49.3657 61.7583C47.6913 61.066 45.8968 60.7103 44.0848 60.7117C42.2729 60.713 40.4789 61.0712 38.8055 61.766C37.132 62.4607 35.6118 63.4783 34.3317 64.7606L20.8164 78.7467C19.5786 80.0699 18.6136 81.6241 17.9766 83.3204C17.3395 85.0166 17.0429 86.8218 17.1036 88.6327C17.1643 90.4436 17.5812 92.2249 18.3304 93.8747C19.0796 95.5245 20.1465 97.0105 21.4701 98.2479C24.7675 101.56 29.2061 103.487 33.8775 103.633L53.726 104.573Z" stroke="white" stroke-width="1.5" stroke-linecap="round" stroke-linejoin="round"/>
<path d="M512.826 229.328C517.211 230.231 521.498 227.409 522.401 223.023C523.304 218.638 520.482 214.351 516.096 213.448C511.711 212.545 507.424 215.368 506.521 219.753C505.618 224.138 508.441 228.425 512.826 229.328Z" stroke="white" stroke-width="1.5" stroke-linecap="round" stroke-linejoin="round"/>
<path d="M528.926 232.644C533.312 233.547 537.599 230.725 538.502 226.339C539.405 221.954 536.582 217.667 532.197 216.764C527.812 215.861 523.525 218.684 522.622 223.069C521.719 227.454 524.541 231.741 528.926 232.644Z" stroke="white" stroke-width="1.5" stroke-linecap="round" stroke-linejoin="round"/>
<path d="M545.027 235.96C549.412 236.863 553.699 234.04 554.602 229.655C555.505 225.27 552.683 220.983 548.297 220.08C543.912 219.177 539.625 222 538.722 226.385C537.819 230.77 540.642 235.057 545.027 235.96Z" stroke="white" stroke-width="1.5" stroke-linecap="round" stroke-linejoin="round"/>
<path d="M517.671 247.11C522.056 248.013 526.343 245.19 527.246 240.805C528.149 236.42 525.326 232.133 520.941 231.229C516.556 230.326 512.269 233.149 511.366 237.534C510.463 241.919 513.285 246.207 517.671 247.11Z" stroke="white" stroke-width="1.5" stroke-linecap="round" stroke-linejoin="round"/>
<path d="M533.55 250.38C537.936 251.283 542.223 248.46 543.126 244.075C544.029 239.69 541.206 235.403 536.821 234.5C532.436 233.597 528.149 236.42 527.246 240.805C526.343 245.19 529.165 249.477 533.55 250.38Z" stroke="white" stroke-width="1.5" stroke-linecap="round" stroke-linejoin="round"/>
<path d="M522.567 263.522C526.952 264.425 531.239 261.602 532.142 257.217C533.046 252.832 530.223 248.545 525.838 247.642C521.452 246.739 517.165 249.562 516.262 253.947C515.359 258.332 518.182 262.619 522.567 263.522Z" stroke="white" stroke-width="1.5" stroke-linecap="round" stroke-linejoin="round"/>
<path d="M532.197 216.764C532.305 214.827 532.945 212.958 534.044 211.359C535.144 209.761 536.661 208.496 538.431 207.702" stroke="white" stroke-width="1.5" stroke-linecap="round" stroke-linejoin="round"/>
<path d="M532.479 131.358C536.083 129.567 537.553 125.194 535.763 121.589C533.972 117.985 529.598 116.514 525.993 118.305C522.389 120.096 520.919 124.47 522.71 128.075C524.5 131.679 528.874 133.149 532.479 131.358Z" stroke="white" stroke-width="1.5" stroke-linecap="round" stroke-linejoin="round"/>
<path d="M515.263 139.913C518.867 138.122 520.338 133.748 518.547 130.143C516.756 126.539 512.382 125.069 508.777 126.86C505.173 128.65 503.703 133.024 505.494 136.629C507.285 140.233 511.658 141.703 515.263 139.913Z" stroke="white" stroke-width="1.5" stroke-linecap="round" stroke-linejoin="round"/>
<path d="M525.994 118.305C525.994 118.305 517.591 107.889 520.191 102.107C503.978 113.53 508.777 126.859 508.777 126.859" stroke="white" stroke-width="1.5" stroke-linecap="round" stroke-linejoin="round"/>
<path d="M512.809 107.996L512.568 108.71C511.602 111.585 509.534 113.958 506.818 115.307C504.102 116.657 500.962 116.872 498.087 115.906L498.327 115.191C499.293 112.317 501.362 109.944 504.078 108.594C506.794 107.245 509.934 107.03 512.809 107.996Z" stroke="white" stroke-width="1.5" stroke-linejoin="round"/>
<path d="M498.621 80.8508C498.144 82.0317 498.072 83.3369 498.414 84.5633C499.239 88.7914 497.589 93.9477 493.671 97.8664C489.752 101.785 484.699 103.435 480.574 102.61C479.211 102.353 477.812 102.353 476.449 102.61C475.825 102.699 475.19 102.574 474.647 102.256C474.104 101.937 473.685 101.444 473.458 100.857C473.272 100.363 473.236 99.8247 473.355 99.3102C473.526 97.7999 473.491 96.2736 473.252 94.7727C472.633 90.7508 474.283 85.9039 478.099 82.1914C481.914 78.4789 487.174 76.6227 491.299 77.5508C492.534 77.7936 493.81 77.7226 495.011 77.3445C495.323 77.1652 495.685 77.0927 496.042 77.1383C496.781 77.1383 497.489 77.4317 498.011 77.9538C498.533 78.476 498.827 79.1842 498.827 79.9227C498.808 80.2411 498.738 80.5544 498.621 80.8508Z" stroke="white" stroke-width="1.5" stroke-linecap="round" stroke-linejoin="round"/>
<path d="M483.049 98.7945C483.732 98.7945 484.287 98.2405 484.287 97.557C484.287 96.8736 483.732 96.3196 483.049 96.3196C482.366 96.3196 481.812 96.8736 481.812 97.557C481.812 98.2405 482.366 98.7945 483.049 98.7945Z" fill="white"/>
<path d="M488.515 97.557C489.198 97.557 489.752 97.003 489.752 96.3195C489.752 95.6361 489.198 95.082 488.515 95.082C487.831 95.082 487.277 95.6361 487.277 96.3195C487.277 97.003 487.831 97.557 488.515 97.557Z" fill="white"/>
<path d="M491.711 93.5351C492.395 93.5351 492.949 92.981 492.949 92.2976C492.949 91.6141 492.395 91.0601 491.711 91.0601C491.028 91.0601 490.474 91.6141 490.474 92.2976C490.474 92.981 491.028 93.5351 491.711 93.5351Z" fill="white"/>
<g clip-path="url(#clip0_2808_7)">
<path d="M482.152 330.941C482.098 330.91 480.482 330.013 480.482 330.013L480.133 329.818L480.195 329.423C481.037 324.099 478.995 319.246 473.954 314.582C469.483 310.442 463.253 307.001 457.757 303.964C454.301 302.055 451.038 300.251 448.493 298.448L448.022 298.116L448.359 297.649C451.357 293.483 452.817 290.759 452.952 289.074C453.056 287.789 452.41 287.248 451.164 286.328C449.56 285.144 447.564 283.67 447.525 279.39L447.522 279.082L447.78 278.911C447.953 278.794 448.224 278.647 448.537 278.473C448.825 278.315 449.358 278.021 449.753 277.763C449.736 277.763 449.722 277.763 449.706 277.761C447.856 278.594 445.748 278.44 443.899 277.332C441.978 276.182 440.729 274.219 440.635 272.207L440.631 272.122L440.652 272.04C440.823 271.37 441.13 270.465 441.883 270.387C442.834 270.283 443.484 271.57 444.234 273.059C444.449 273.484 444.749 274.078 444.955 274.381C446.647 273.517 447.095 273.102 447.212 272.937C447.008 272.765 446.376 272.512 445.9 272.324C444.505 271.772 442.631 271.025 441.539 269.374C441.446 269.446 441.364 269.583 441.229 269.829C440.887 270.457 440.37 271.408 438.479 271.309C436.89 271.356 436.091 271.549 435.561 271.679C434.362 271.969 434.16 271.767 432.854 270.442C432.535 270.12 432.142 269.722 431.638 269.228C430.891 268.916 430.423 269.045 429.785 269.22C428.734 269.507 427.426 269.862 424.808 268.268C423.096 267.135 423.332 265.599 423.456 264.772C423.471 264.679 423.488 264.565 423.498 264.47C423.127 264.602 422.716 264.685 422.388 264.424C422.026 264.134 422.089 263.677 422.135 263.342C422.185 262.989 422.208 262.725 422.073 262.55C421.935 262.37 421.597 262.234 421.118 262.165C420.45 262.271 419.706 262.131 418.986 261.998C418.261 261.864 417.441 261.711 417.145 261.947C416.99 262.069 416.949 262.359 416.94 262.578L416.915 263.229L416.273 263.119C416.087 263.089 415.892 263.046 415.696 263.006C415.126 262.886 414.346 262.722 414.117 262.93C414.002 263.035 413.959 263.332 414.002 263.742L414.017 263.893L413.956 264.033C413.231 265.685 411.409 265.695 409.801 265.708C408.674 265.715 407.61 265.722 407.162 266.253C407 266.444 406.906 266.724 406.883 267.087C407.083 267.018 407.273 266.996 407.431 266.999C409.101 267.011 410.877 269.482 412.935 272.347C414.89 275.069 417.106 278.152 418.728 278.127L418.817 278.131C419.273 278.195 419.895 278.255 420.616 278.324C422.695 278.523 425.282 278.768 426.581 279.373L426.636 279.399L426.684 279.435C426.935 279.624 427.214 279.885 427.511 280.16C428.16 280.765 429.139 281.684 429.746 281.591C429.825 281.578 430.065 281.542 430.344 281.054L431.049 279.825L431.397 281.197C431.615 282.062 431.951 285.054 431.56 286.592C433.259 287.937 434.42 291.025 434.737 292.431C435.659 295.764 435.246 298.115 433.513 299.412C430.676 301.537 424.815 299.996 420.742 297.467L419.556 296.732C412.212 296.542 408.268 297.009 405.853 297.296C401.235 297.845 401.106 297.747 394.276 292.682C391.836 290.871 388.503 288.399 383.769 285.063C381.989 284.948 380.763 284.338 380.124 283.253C378.689 280.81 380.714 276.741 381.924 274.31L381.979 274.22C383.506 272.191 384.602 271.242 385.526 271.144C386.112 271.082 386.504 271.369 386.735 271.566C386.774 271.502 386.823 271.416 386.881 271.3L386.928 271.222C388.963 268.408 388.702 266.919 388.47 265.609C388.262 264.414 388.205 263.439 389.071 262.305C388.847 262.413 388.618 262.459 388.376 262.428C387.871 262.363 387.483 261.969 387.223 261.259L387.196 261.166C386.696 258.475 388.777 256.83 390.45 255.507C391.436 254.727 392.367 253.993 392.411 253.32C392.43 253.029 392.283 252.71 391.958 252.351C390.236 251.845 388.305 250.945 388.116 248.619L388.049 247.785L388.851 248.025C389.982 248.362 390.755 248.553 391.283 248.661C390.551 248.19 389.406 247.564 388.034 246.955C387.3 247.05 386.77 247.086 386.561 246.612C386.36 246.155 386.738 245.839 386.988 245.63C387.065 245.564 387.202 245.449 387.289 245.356C387.2 245.306 387.037 245.232 386.751 245.153L386.607 245.113L386.503 245.01C385.065 243.59 386.955 241.219 388.047 239.932C387.617 239.247 387.149 238.402 386.66 237.513C385.327 235.095 383.689 232.13 381.974 230.987C381.731 231.193 381.473 231.265 381.267 231.282C379.992 231.39 378.531 229.663 376.607 227.212C375.971 226.403 375.37 225.637 375.054 225.393L374.989 225.332C372.78 222.981 370.933 223.027 369.584 223.061C368.761 223.083 367.985 223.103 367.432 222.54C366.958 222.058 366.756 221.248 366.777 219.869C363.649 218.469 360.374 216.73 356.916 214.895C346.887 209.572 335.521 203.539 324.931 204.722L324.696 204.748L324.512 204.601C324.18 204.339 323.944 204.113 323.773 203.946C323.694 203.87 323.603 203.781 323.542 203.732C323.365 203.814 322.958 204.112 322.678 204.317L322.364 204.548L322.034 204.342C321.9 204.257 321.763 204.167 321.623 204.078C320.566 203.393 319.47 202.683 318.341 202.932L316.55 203.323L317.8 201.982C318.339 201.406 318.431 200.726 318.081 199.905C317.518 198.584 315.943 197.232 314.429 196.432C314.456 196.602 314.416 196.773 314.312 196.919C314.102 197.215 313.7 197.484 311.336 197.252L311.223 197.229C301.609 194.272 286.85 192.733 277.244 195.511L277.086 195.557L276.928 195.51C275.858 195.205 275.287 194.35 274.78 193.597C274.524 193.214 274.309 192.907 274.086 192.688C274.129 192.883 274.096 193.069 273.963 193.246C273.505 193.849 272.696 193.462 269.958 192.026C268.907 191.474 267.467 190.718 267.102 190.681L266.705 190.641L266.604 190.256C266.147 188.502 264.959 187.865 263.585 187.128C262.579 186.587 261.536 186.029 260.79 184.985L260.658 184.802L260.687 184.579C260.769 183.931 260.682 183.606 260.572 183.515C260.513 183.466 260.243 183.333 259.286 183.657L258.784 183.826L258.576 183.337C257.333 180.416 258.629 177.34 259.775 174.627C261.348 170.897 262.591 167.949 258.251 165.727L258.251 165.723C258.107 165.621 257.866 165.365 257.237 164.687L252.692 159.801C252.342 159.648 252.026 159.511 251.737 159.391C250.227 158.748 249.396 158.395 249.136 157.578C248.893 156.815 249.238 155.973 249.992 154.126C250.033 154.024 250.076 153.918 250.121 153.808C250.006 153.743 249.884 153.677 249.76 153.609C248.535 152.934 247.012 152.094 246.633 150.747C246.5 150.279 246.522 149.798 246.692 149.309C245.426 148.94 242.158 149.816 239.916 150.418C236.716 151.279 235.013 151.697 234.258 151.09C234.015 150.892 233.89 150.604 233.907 150.277L233.922 149.994L234.156 149.833C234.729 149.444 235.792 149.073 236.927 148.742C229.678 148.87 224.084 144.967 218.672 141.185C217.125 140.105 215.525 138.987 213.941 138.013C213.239 137.892 212.534 137.558 211.85 137.234C210.306 136.502 209.315 136.102 208.456 137.075L208.114 137.462L207.695 137.163C206.547 136.344 206.558 135.507 206.564 134.894C206.572 134.268 206.578 133.813 204.839 133.158C194.051 137.316 192.185 135.557 189.322 131.539C187.964 129.63 186.318 127.321 182.72 125.307C183.41 126.135 184.021 126.452 184.618 126.762C186.347 127.657 187.46 128.55 188.479 135.281C190.274 137.868 190.319 139.649 190.353 140.954C190.383 142.121 190.399 142.782 191.575 143.59C194.5 143.699 196.864 145.12 198.444 147.716C199.483 147.324 200.2 147.494 200.545 147.821C200.822 148.085 200.901 148.462 200.747 148.807C200.484 149.404 199.622 149.712 198.441 149.628L198.365 149.617C198.247 149.592 198.14 149.572 198.039 149.554C198.779 150.072 199.882 150.737 200.584 151.162C201.262 151.572 201.82 151.907 202.157 152.145C204.643 152.297 207.401 153.156 210.072 153.99C214.662 155.423 219.409 156.904 222.806 154.831L223.064 154.673L223.339 154.796C229.18 157.421 229.601 158.037 229.603 158.742C229.604 159.363 229.011 159.63 228.536 159.848C228.183 160.007 227.744 160.208 227.708 160.443C227.684 160.595 227.737 161.204 229.395 162.693L229.449 162.742L229.489 162.803C229.577 162.932 229.932 163.119 230.168 163.243C230.659 163.5 231.171 163.766 231.123 164.321C231.079 164.85 230.521 165.088 230.136 165.222C229.156 166.194 228.924 166.644 228.869 166.809C229.316 166.959 230.823 166.738 231.748 166.6C233.901 166.282 235.759 166.008 236.216 167.129L236.376 167.521L236.048 167.789C232.6 170.61 228.842 174.017 227.886 178.789C227.772 179.28 227.535 179.62 227.174 179.817C226.438 180.216 225.462 179.863 224.429 179.487C223.527 179.159 222.507 178.787 222.003 179.098C221.781 179.233 221.622 179.533 221.535 179.985C223.046 181.354 223.641 182.288 223.578 183.175C223.504 184.2 222.586 184.8 221.423 185.56C219.064 187.105 215.499 189.436 215.883 197.242L215.888 197.327L215.866 197.409C215.141 200.286 214.395 201.587 213.372 201.752L213.361 201.753C212.122 201.941 211.171 200.387 210.069 198.588C209.509 197.672 208.927 196.724 208.313 196.011C207.354 195.224 205.939 193.717 204.307 191.978C200.619 188.051 195.044 182.116 192.261 182.299L191.79 182.331L191.671 181.875C189.587 174.02 177.474 174.372 170.238 174.583C168.695 174.628 167.36 174.666 166.31 174.629C165.041 174.873 163.631 174.144 162.6 173.607C162.577 173.595 162.555 173.584 162.532 173.572C159.523 174.917 152.676 173.416 149.674 172.427C147.8 173.25 146.541 173.332 145.829 172.682C145.208 172.114 145.137 171.123 145.606 169.654C143.497 167.193 140.885 164.571 138.123 161.799C128.59 152.235 117.795 141.406 119.579 129.584C119.217 129.283 118.885 129.007 118.582 128.754C116.156 126.737 115.504 126.195 115.48 125.464C115.463 124.94 115.819 124.602 116.234 124.211C116.989 123.495 118.253 122.297 119.087 118.843L119.248 118.175L119.875 118.452C120.525 118.739 121.012 118.807 121.323 118.653C121.861 118.388 122.104 117.377 122.359 116.308L122.463 115.876L122.65 115.751C123.561 115.14 124.032 114.55 124.052 113.995C124.084 112.971 122.627 111.849 121.34 110.859C120.898 110.52 120.48 110.197 120.102 109.871L119.617 109.45L120.088 109.017C120.241 108.877 120.5 108.638 120.73 108.411C120.619 108.428 120.491 108.451 120.345 108.482L118.304 108.894L119.616 107.704C119.583 107.494 119.544 107.252 119.544 107.252L119.445 106.639L120.064 106.59C121.003 106.518 121.309 105.836 121.696 104.725C121.96 103.97 122.231 103.189 122.985 102.984C123.563 102.829 124.236 103.075 125.141 103.785C125.66 103.516 126.181 103.105 126.726 102.674C127.86 101.777 129.143 100.764 130.71 100.975C130.549 100.619 130.365 100.215 130.505 99.8301C130.687 99.2442 131.094 98.7032 131.488 98.1806C131.96 97.5548 132.448 96.9058 132.517 96.2289L132.612 95.3323L133.383 95.7996C133.62 95.9425 134.592 95.5261 135.685 94.1881C136.717 92.9273 136.949 91.9344 136.786 91.7565L136.764 91.7323C136.432 91.3288 135.942 90.8533 135.494 90.8813C134.801 90.9279 134.083 92.0756 133.45 93.089C132.755 94.2007 132.098 95.2527 131.184 95.3998C131.177 95.4009 131.171 95.402 131.164 95.4031C130.735 95.4651 130.323 95.325 129.939 94.9879L129.801 94.8663L129.761 94.6872C129.591 93.9514 129.887 93.15 130.39 92.4405L130.716 91.2214C130.753 91.0808 130.783 90.93 130.813 90.786C130.898 90.3618 131 89.8443 131.375 89.4639L131.252 89.2934C130.527 88.2876 131.674 87.1148 132.359 86.4108C132.455 86.3119 132.546 86.2183 132.619 86.1393C133.016 81.7243 131.028 75.6775 127.37 73.5642C125.262 72.3472 122.936 72.6405 120.455 74.4408L120.362 74.5091L120.247 74.5345C119.057 74.8096 117.267 73.5924 115.379 72.2147C115.106 72.0129 114.867 71.8403 114.7 71.728L112.986 70.5797C110.498 70.6926 108.427 70.0333 106.409 69.3887C103.944 68.6026 101.615 67.8618 98.4763 68.3392L98.1053 68.3989L97.9049 68.0763C97.6399 67.6551 97.6781 67.2871 97.7589 67.0538C98.0124 66.3079 98.9955 65.9432 99.7861 65.6513C100.012 65.5685 100.244 65.4825 100.346 65.4243L100.434 65.3822C101.155 65.12 101.992 64.5192 102.875 63.883C103.977 63.0886 105.109 62.2756 106.253 61.9337C105.888 61.7419 105.463 61.6549 105.115 61.7366L104.717 61.833L104.497 61.4881C104.168 60.9728 104.301 60.5477 104.407 60.3405C104.951 59.2927 107.274 58.9791 110.846 58.8146C111.146 58.8011 111.457 58.7859 111.529 58.7743L112.08 58.6624L112.191 59.2127C112.815 61.9907 114.158 62.7812 114.854 62.8106C115.085 62.8197 115.264 62.7492 115.301 62.6319C115.37 62.4098 115.11 61.8508 114.108 61.2144L113.673 60.9387L113.903 60.4773C115.093 58.08 118.407 58.4882 120.827 58.7898C121.603 58.8852 122.643 59.017 123.003 58.9196C122.966 58.7888 122.833 58.4831 122.373 57.8891C122.1 57.5458 121.99 57.1925 122.05 56.8464C122.151 56.2619 122.669 55.9373 123.171 55.6223C123.668 55.3103 124.021 55.0656 124.035 54.7758C124.047 54.4608 123.755 53.7028 121.685 52.1295C118.858 51.977 118.154 50.7752 117.988 50.062C117.739 48.9911 118.417 47.7524 119.6 47.1166C120.541 46.6102 121.928 46.4774 123.102 47.5387C124.253 47.3857 125.145 46.9592 125.412 46.4246C125.58 46.0867 125.513 45.6545 125.214 45.1389C124.29 44.4156 123.569 43.8985 123.037 43.518C121.295 42.2698 120.993 41.9798 121.877 40.2788C122.435 39.2033 123.473 37.2039 124.41 32.8201L124.444 32.7127C126.108 28.8543 127.683 26.8428 129.548 26.1946C131.666 25.457 133.853 26.6312 136.383 27.9913C137.922 28.8174 139.662 29.755 141.676 30.4422C150.38 31.4115 159.608 33.6765 169.375 36.0728C184.318 39.7395 199.772 43.5306 213.109 42.2744C214.962 40.4847 216.617 38.8591 218.079 37.4177C224.747 30.8566 228.094 27.5647 232.423 26.4759C236.731 25.3927 241.839 26.5513 252.017 28.8606C253.074 29.101 254.184 29.3536 255.354 29.6153L255.532 29.6562L255.654 29.792C260.902 35.6249 262.799 33.9788 265.672 31.4891C267.183 30.179 268.898 28.6946 271.357 28.0831L272.119 27.893L272.065 28.6765C271.763 33.074 277.396 35.1175 282.367 36.9198C286.11 38.2772 289.345 39.4495 289.809 41.5528C290.041 42.6056 289.558 43.7154 288.334 44.9469C288.169 45.2193 288.185 45.3929 288.215 45.5019C288.38 46.1432 289.603 46.7767 290.494 47.2386C290.996 47.4989 291.429 47.7238 291.738 47.9615L291.844 48.0442L291.903 48.1646C291.944 48.2461 291.98 48.3077 292.008 48.3519C292.081 48.2774 292.169 48.1751 292.23 48.105C292.412 47.8925 292.619 47.6505 292.875 47.5002L292.979 47.4394L293.097 47.425C294.306 47.2814 295.218 47.1625 295.884 47.0762C298.02 46.7973 298.195 46.7738 298.784 47.2657C299.063 47.4968 299.565 47.9171 301.419 48.5718C302.623 47.2577 303.587 47.5826 304.306 47.8241C305.057 48.0767 305.651 48.278 306.96 46.5203L307.187 46.2169L307.554 46.3063C308.346 46.4966 309.213 45.9882 310.05 45.4963C310.972 44.9536 311.926 44.3918 312.873 44.7682C313.572 45.0454 314.088 45.7718 314.49 47.0453C315.185 47.3695 315.998 47.8811 316.925 48.4625C319.096 49.8271 321.801 51.5255 323.648 51.0797C324.278 50.9273 324.778 50.5314 325.176 49.8642L325.222 49.799C325.759 49.1303 326.821 49.2099 327.85 49.2901C328.277 49.3233 329.038 49.3794 329.298 49.2796C330.026 46.6644 334.159 44.3918 336.918 42.8761C337.397 42.6134 337.811 42.3845 338.141 42.1898L338.213 42.148L338.294 42.1281C343.727 40.7827 346.92 39.0232 348.057 36.748C349.168 34.5235 348.106 32.0202 347.168 29.8123C346.365 27.9237 345.607 26.1392 346.314 24.7219C346.75 23.8444 347.683 23.2397 349.16 22.8698L349.385 22.8127L349.587 22.9309C354.714 25.9211 359.597 36.2635 359.222 38.372C359.119 38.9452 358.697 39.0641 358.571 39.0845C358.198 39.1491 357.587 39.2568 355.327 35.9141C356.337 38.4955 357.248 41.1576 357.006 42.899C357.386 42.4945 357.778 42.1137 358.183 41.8095L358.744 42.538C358.868 41.8987 359.138 41.3705 359.699 41.2339C361.419 40.8108 363.952 45.1974 369.329 55.3073C372.287 60.8685 375.347 66.6197 376.839 67.7897L376.909 67.8435L376.957 67.9169C378.426 70.0508 388.925 81.6672 400.983 93.4804C415.143 107.356 425.005 115.083 428.04 114.683C428.397 114.634 428.6 114.47 428.721 114.128L428.911 113.591L429.449 113.778C430.855 114.269 431.736 114.278 432.38 114.285C434.242 114.308 434.484 114.842 435.595 118.977C437.827 120.65 440.415 123.511 443.15 126.533C449.12 133.131 455.888 140.612 461.563 139.037L462.18 138.866L462.282 139.499C463.598 147.746 470.958 149.904 477.434 149.174C480.429 147.999 483.62 148.508 486.668 150.652C489.146 152.394 491.369 155.119 492.772 158.128L493.307 159.276L492.092 158.92C489.562 158.177 488.624 158.36 488.284 158.642C487.852 159.002 487.954 159.966 488.058 160.989C488.241 162.757 488.494 165.179 485.834 166.113L485.768 166.135L485.697 166.142C481.622 166.524 478.631 165.083 476.807 161.856C475.677 161.493 474.273 160.844 472.664 160.101C468.423 158.142 463.144 155.705 460.178 157.345C458.951 158.025 458.203 159.363 457.901 161.432L458.204 161.849C461.069 165.765 462.256 167.385 461.845 168.727C461.492 169.888 460.06 170.406 457.462 171.35C456.388 171.741 455.069 172.221 453.536 172.848C453.061 180.794 455.097 190.632 457.068 200.154C458.299 206.1 459.461 211.718 459.998 216.737L459.998 216.841C459.986 217.01 459.986 217.126 459.994 217.206C460.283 217.08 460.792 216.715 461.119 216.482C462.081 215.796 463.073 215.087 463.908 215.416L464.047 215.472L464.143 215.589C466.879 218.969 470.558 220 474.455 221.089C478.732 222.287 483.152 223.526 486.022 228.139L486.066 228.21L486.089 228.292C487.325 232.899 482.402 235.561 477.645 238.136C474.531 239.82 471.316 241.56 470.262 243.699C471.276 244.324 471.795 244.969 471.882 245.707C472.029 246.935 470.909 247.939 469.723 249.002C467.671 250.845 466.535 252.104 468.148 253.992C472.98 257.431 477.184 262.719 479.403 268.156C481.25 272.681 482.628 279.41 478.717 285.776L478.623 285.93L478.459 286.003C474.199 287.851 470.858 291.299 467.629 294.635C465.698 296.63 463.698 298.693 461.531 300.383C461.17 300.659 460.757 301.066 460.821 301.45C460.947 302.2 462.393 303.039 465.121 303.947L465.307 304.008L465.412 304.139C466.969 306.083 468.436 305.956 469.987 305.822C472.456 305.608 474.28 305.85 475.202 310.904C475.581 311.525 476.148 312.355 476.803 313.309C480.085 318.099 485.578 326.119 482.917 330.753L482.407 330.492L482.139 330.964L482.152 330.941ZM481.383 329.204L482.183 329.648C483.817 325.528 478.873 318.315 475.873 313.932C475.178 312.917 474.577 312.039 474.181 311.379L474.127 311.288L474.11 311.184C473.303 306.659 472.028 306.769 470.102 306.938C468.516 307.075 466.548 307.246 464.642 304.964C462.327 304.186 459.967 303.177 459.706 301.614C459.579 300.852 459.963 300.125 460.845 299.45C462.946 297.812 464.916 295.779 466.822 293.812C470.089 290.437 473.465 286.951 477.852 284.999C484.391 274.093 475.537 260.584 467.445 254.859L467.39 254.819L467.345 254.768C464.805 251.865 467.216 249.702 468.974 248.123C469.888 247.301 470.835 246.453 470.76 245.815C470.709 245.397 470.199 244.913 469.282 244.42L468.853 244.19L469.011 243.731C469.966 240.968 473.436 239.09 477.112 237.102C481.648 234.648 485.935 232.327 485.015 228.642C482.377 224.465 478.383 223.347 474.157 222.162C470.32 221.087 466.352 219.977 463.401 216.446C463.397 216.447 463.394 216.447 463.39 216.448C463.026 216.507 462.181 217.111 461.798 217.384C460.866 218.049 460.062 218.624 459.391 218.247C458.863 217.949 458.834 217.279 458.867 216.777C458.332 211.826 457.18 206.254 455.959 200.355C453.944 190.618 451.861 180.549 452.429 172.386L452.453 172.031L452.779 171.895C454.476 171.191 455.923 170.666 457.082 170.245C459.185 169.482 460.572 168.978 460.759 168.366C461 167.571 459.605 165.662 457.288 162.497L456.711 161.709L456.739 161.482C457.067 158.933 458.037 157.193 459.629 156.313C463.104 154.392 468.674 156.963 473.148 159.031C474.828 159.806 476.277 160.475 477.363 160.794L477.592 160.862L477.705 161.073C479.268 163.983 481.898 165.297 485.521 164.976C487.141 164.374 487.131 163.096 486.921 161.074C486.788 159.799 486.652 158.478 487.552 157.73C488.244 157.155 489.38 157.065 491.161 157.462C488.71 153.086 483.467 147.948 477.791 150.233L477.718 150.26L477.641 150.273C473.553 150.746 469.869 150.121 466.992 148.464C463.964 146.72 461.991 143.888 461.259 140.248C461.212 140.256 461.166 140.263 461.119 140.271C454.962 141.262 448.251 133.844 442.301 127.266C439.538 124.213 436.929 121.328 434.756 119.746L434.592 119.626L434.54 119.43C433.982 117.344 433.639 116.196 433.32 115.702C433.141 115.425 433.07 115.404 432.366 115.394C431.755 115.388 430.866 115.376 429.549 114.978C429.244 115.428 428.784 115.704 428.189 115.781C424.654 116.248 415.23 109.007 400.181 94.2636C388.969 83.2791 377.923 71.2313 376.063 68.6013C374.366 67.1858 371.428 61.6586 368.317 55.8111C366.547 52.4824 364.716 49.0404 363.163 46.4678C361.034 42.944 360.219 42.405 359.993 42.3277C359.931 42.435 359.789 42.7896 359.782 43.8252C359.782 44.5906 359.696 45.3977 359.053 45.5428C358.809 45.5984 358.341 45.5717 357.957 44.773C357.835 44.5189 357.724 44.1912 357.659 43.8399C357.483 44.0306 357.31 44.2254 357.137 44.418C356.671 44.9406 356.189 45.4797 355.709 45.9002L355.663 45.9425L355.607 45.9723C354.603 46.5236 353.859 46.873 353.45 46.3498C352.997 45.7686 353.618 45.1004 354.977 43.6408C355.299 43.2943 355.728 42.8332 355.877 42.6307C356.078 40.824 354.736 37.4774 353.652 34.7781C353.039 33.2486 352.459 31.8042 352.204 30.7668L351.239 26.8631L353.256 30.3423C356.022 35.1134 357.405 36.8855 358.04 37.544C357.502 35.0861 353.674 26.7865 349.208 24.0078C348.209 24.2869 347.597 24.6777 347.337 25.1996C346.865 26.1453 347.523 27.6932 348.221 29.3321C349.204 31.6486 350.429 34.5293 349.081 37.2257C347.791 39.8084 344.379 41.7587 338.648 43.1868C338.317 43.3793 337.92 43.5984 337.466 43.8478C334.983 45.2147 330.824 47.5008 330.368 49.6849L330.34 49.8146L330.258 49.9207C329.763 50.5546 328.791 50.4792 327.76 50.4017C327.254 50.3624 326.327 50.2937 326.128 50.4695C325.575 51.3749 324.829 51.9449 323.913 52.1643C321.592 52.7212 318.665 50.8822 316.313 49.403C315.358 48.8029 314.454 48.2363 313.795 47.962L313.539 47.8571L313.462 47.5912C313.089 46.3013 312.701 45.9068 312.443 45.8023C312.019 45.6339 311.343 46.0304 310.626 46.4519C309.742 46.9722 308.751 47.5563 307.66 47.4536C306.107 49.399 305.012 49.2413 303.938 48.8807C303.253 48.65 302.878 48.5248 302.048 49.5676L301.798 49.884L301.417 49.755C299.057 48.959 298.4 48.4107 298.047 48.1173C297.911 48.0031 297.238 48.0249 296.027 48.1827C295.386 48.2673 294.518 48.3792 293.378 48.5164C293.29 48.5931 293.185 48.719 293.095 48.8217C292.794 49.1739 292.419 49.61 291.86 49.54C291.401 49.4817 291.118 49.1075 290.939 48.7767C290.699 48.6135 290.338 48.4282 289.958 48.2296C288.755 47.6044 287.393 46.8982 287.096 45.7631C286.964 45.2579 287.068 44.7472 287.397 44.2441L287.429 44.195L287.471 44.1534C288.415 43.2152 288.82 42.4148 288.68 41.774C288.352 40.2844 285.249 39.1602 281.965 37.9702C277.147 36.2222 271.211 34.072 270.908 29.3776C269.086 30.0072 267.728 31.1838 266.41 32.3259C263.539 34.8152 260.827 37.1653 254.913 30.6674C253.806 30.4189 252.753 30.1778 251.749 29.9521C241.75 27.6813 236.731 26.5432 232.688 27.5605C228.663 28.5726 225.39 31.7923 218.867 38.207C217.363 39.6854 215.66 41.3627 213.744 43.2089L213.602 43.3478L213.403 43.3682C199.825 44.7002 184.198 40.8653 169.088 37.1581C159.335 34.7641 150.122 32.5037 141.473 31.5464L141.412 31.54L141.352 31.5194C139.225 30.7995 137.419 29.8308 135.826 28.9738C133.439 27.6905 131.554 26.6765 129.911 27.2495C128.403 27.7751 127.004 29.631 125.505 33.0893C124.539 37.5866 123.46 39.6622 122.882 40.7805C122.705 41.1222 122.504 41.5069 122.518 41.609C122.56 41.7508 123.11 42.1446 123.693 42.5634C124.249 42.961 125.01 43.5066 125.993 44.2807L126.073 44.3444L126.126 44.4309C126.829 45.5679 126.678 46.4063 126.428 46.9128C125.748 48.2794 123.763 48.6081 122.941 48.6872L122.662 48.7135L122.469 48.5103C121.527 47.5138 120.521 47.8938 120.132 48.1025C119.421 48.4838 118.964 49.2229 119.094 49.7819C119.253 50.4683 120.301 50.9142 121.898 50.9726L122.078 50.9785L122.22 51.0855C124.299 52.6434 125.21 53.7887 125.168 54.7997C125.13 55.7151 124.344 56.2081 123.771 56.5694C123.571 56.6944 123.242 56.9027 123.174 57.0134C123.182 57.0352 123.204 57.0828 123.265 57.1611C123.86 57.9304 124.412 58.8042 124.022 59.4839C123.577 60.263 122.36 60.1133 120.674 59.9045C118.679 59.6575 116.238 59.3546 115.188 60.5581C116.595 61.6327 116.503 62.5753 116.383 62.9541C116.187 63.5817 115.564 63.965 114.796 63.9333C113.593 63.8834 111.965 62.7932 111.183 59.9225C111.097 59.9269 111.001 59.9309 110.888 59.9374C107.79 60.0812 106.433 60.3553 105.842 60.578C106.727 60.7255 107.581 61.2908 107.964 62.0688L108.397 62.9453L107.422 62.8937C106.254 62.8334 104.869 63.8288 103.53 64.7935C102.594 65.466 101.71 66.1023 100.852 66.4236C100.675 66.5171 100.439 66.6062 100.169 66.7052C99.9745 66.7783 99.5933 66.9185 99.2882 67.0697C102.206 66.832 104.508 67.5655 106.743 68.2773C109.423 69.1307 111.955 69.9386 115.43 69.0244L115.637 68.9702L115.828 69.0646C116.736 69.5123 116.93 70.3416 116.724 70.9221C116.652 71.1261 116.521 71.3235 116.338 71.4806C117.302 72.1789 119.118 73.4452 119.883 73.408C123.415 70.9027 126.204 71.5531 127.928 72.5489C132.154 74.9906 134.23 81.6448 133.728 86.4108L133.712 86.5711L133.614 86.6982C133.507 86.8384 133.349 86.9983 133.168 87.1851C132.65 87.7139 132.386 88.0509 132.258 88.2617L132.927 88.154L133.018 88.7192C133.018 88.7192 133.053 88.9317 133.083 89.1194L134.447 89.7951L137.101 88.6975L135.694 89.7149C136.351 89.7739 136.988 90.1862 137.631 90.9687C138.454 91.8869 137.622 93.5911 136.564 94.8864C135.689 95.9549 134.516 96.93 133.512 96.9478C133.28 97.6671 132.814 98.2872 132.393 98.8466C132.051 99.3029 131.726 99.7333 131.596 100.123C131.62 100.21 131.696 100.378 131.745 100.482C131.932 100.895 132.165 101.407 131.83 101.832C131.487 102.268 130.864 102.147 130.629 102.102C129.514 101.901 128.501 102.702 127.428 103.549C126.743 104.091 126.035 104.653 125.261 104.963L124.941 105.091L124.678 104.869C123.647 103.998 123.315 104.056 123.279 104.064C123.108 104.11 122.905 104.693 122.772 105.078C122.54 105.744 122.227 106.637 121.519 107.196C121.836 107.235 122.086 107.36 122.224 107.627C122.499 108.168 122.077 108.688 121.336 109.392C121.557 109.567 121.79 109.745 122.029 109.932C123.607 111.146 125.241 112.402 125.187 114.014C125.157 114.923 124.592 115.754 123.466 116.554C123.145 117.891 122.84 119.155 121.824 119.658C121.325 119.905 120.736 119.923 120.032 119.712C119.115 123.028 117.763 124.31 117.016 125.017C116.866 125.157 116.688 125.33 116.628 125.418C116.765 125.735 117.839 126.629 119.309 127.851C119.682 128.162 120.097 128.506 120.558 128.893L120.81 129.103L120.756 129.427C118.822 140.795 129.504 151.512 138.931 160.968C141.801 163.848 144.513 166.568 146.687 169.136L146.899 169.387L146.789 169.697C146.219 171.299 146.5 171.72 146.598 171.813C146.86 172.052 147.731 172.034 149.402 171.269L149.609 171.173L149.825 171.247C153.052 172.354 159.963 173.686 162.252 172.406L162.518 172.257L162.791 172.396C162.897 172.451 163.008 172.507 163.122 172.568C164.016 173.034 165.239 173.669 166.131 173.47L166.205 173.454L166.279 173.456C167.298 173.498 168.642 173.458 170.198 173.412C177.651 173.195 190.046 172.835 192.652 181.137C195.992 181.432 201.043 186.807 205.137 191.167C206.764 192.9 208.172 194.399 209.069 195.129L209.141 195.196C209.829 195.985 210.446 196.99 211.041 197.964C211.699 199.04 212.697 200.67 213.184 200.594C213.306 200.575 213.928 200.317 214.728 197.187C214.345 188.794 218.377 186.155 220.789 184.577C221.685 183.99 222.395 183.525 222.428 183.068C222.464 182.572 221.825 181.745 220.536 180.61L220.309 180.41L220.344 180.112C220.465 179.118 220.809 178.46 221.396 178.099C222.372 177.501 223.668 177.972 224.814 178.388C225.457 178.621 226.337 178.943 226.621 178.788C226.681 178.755 226.727 178.667 226.76 178.527C227.723 173.724 231.232 170.283 234.634 167.446C233.894 167.419 232.62 167.608 231.911 167.713C229.875 168.013 228.268 168.25 227.805 167.316C227.464 166.629 227.931 165.751 229.423 164.293L229.539 164.193C229.189 164.009 228.812 163.798 228.576 163.488C227.056 162.114 226.435 161.114 226.568 160.253C226.698 159.404 227.516 159.034 228.054 158.789C228.136 158.753 228.24 158.706 228.33 158.659C227.928 158.292 226.635 157.529 223.13 155.945C219.326 158.063 214.445 156.541 209.723 155.067C206.936 154.198 204.304 153.376 201.92 153.264L201.737 153.254L201.593 153.14C201.349 152.948 200.686 152.549 199.987 152.125C196.754 150.178 195.919 149.542 196.215 148.79C196.382 148.366 196.792 148.247 197.461 148.299C196.062 146.003 193.964 144.766 191.376 144.714L191.213 144.71L191.075 144.621C189.266 143.442 189.235 142.238 189.202 140.968C189.171 139.725 189.131 138.178 187.46 135.814L187.382 135.704L187.361 135.57C186.374 128.949 185.364 128.425 184.088 127.766C183.131 127.27 181.939 126.653 180.588 124.112L179.806 122.64L181.326 123.321C186.542 125.652 188.598 128.54 190.251 130.863C192.745 134.365 193.996 136.123 204.62 132.001L204.819 131.923L205.021 131.995C207.522 132.891 207.714 133.839 207.703 134.893C207.697 135.305 207.694 135.588 207.997 135.913C209.389 134.789 211.01 135.558 212.336 136.186C213.01 136.507 213.647 136.808 214.214 136.884L214.333 136.899L214.436 136.962C216.08 137.968 217.73 139.12 219.322 140.232C224.749 144.023 230.361 147.941 237.551 147.559C238.793 147.477 239.679 147.432 240.252 147.428C240.879 147.422 241.53 147.414 241.623 147.991C241.725 148.622 241.289 148.738 239.185 149.295C238.36 149.513 237.291 149.794 236.39 150.09C237.367 149.903 238.637 149.562 239.613 149.3C243.772 148.183 246.589 147.532 247.807 148.628L248.149 148.935L247.923 149.336C247.697 149.734 247.634 150.09 247.727 150.425C247.979 151.312 249.324 152.053 250.307 152.596C250.607 152.763 250.892 152.919 251.135 153.07L251.54 153.325L251.361 153.769C251.248 154.047 251.143 154.305 251.045 154.546C250.48 155.933 250.105 156.849 250.222 157.216C250.322 157.531 251.061 157.846 252.18 158.322C252.501 158.458 252.86 158.612 253.257 158.787L253.364 158.834L253.446 158.921C253.446 158.921 258.238 164.071 258.861 164.741C264.036 167.445 262.404 171.314 260.825 175.057C259.789 177.515 258.718 180.053 259.45 182.399C260.07 182.246 260.782 182.196 261.292 182.615C261.736 182.977 261.917 183.586 261.844 184.472C262.432 185.198 263.255 185.639 264.121 186.105C265.457 186.82 266.96 187.626 267.608 189.619C268.215 189.815 269.151 190.298 270.482 190.998C270.913 191.223 271.438 191.5 271.927 191.744L271.614 191.414L272.625 191.207C274.324 190.864 275.099 192.017 275.722 192.949C276.125 193.55 276.507 194.117 277.089 194.35C286.516 191.692 300.628 193.015 310.34 195.766L310.486 195.45C310.645 195.107 311.075 194.534 312.173 194.552C314.315 194.586 318.072 196.966 319.128 199.447C319.479 200.274 319.522 201.058 319.261 201.759C320.382 201.905 321.39 202.557 322.239 203.107C322.265 203.124 322.288 203.139 322.314 203.155C323.328 202.433 323.736 202.316 324.563 203.113C324.692 203.237 324.843 203.384 325.039 203.549C335.908 202.445 347.345 208.515 357.448 213.875C361.018 215.77 364.392 217.561 367.589 218.971L367.946 219.129L367.93 219.519C367.88 220.724 367.986 221.468 368.244 221.73C368.438 221.928 368.868 221.929 369.551 221.909C371.023 221.872 373.244 221.816 375.792 224.511C376.214 224.856 376.786 225.583 377.504 226.497C378.446 227.698 380.408 230.195 381.168 230.131C381.188 230.128 381.246 230.126 381.331 229.966L381.595 229.483L382.089 229.728C384.267 230.806 386.069 234.071 387.658 236.954C388.225 237.983 388.763 238.956 389.232 239.653L389.473 240.013L389.083 240.47C388.48 241.175 386.691 243.27 387.228 244.095C387.743 244.255 388.352 244.536 388.475 245.11C388.535 245.383 388.465 245.626 388.343 245.836C389.547 246.363 390.748 246.98 391.637 247.528C392.772 248.226 393.429 248.786 393.198 249.415C392.976 250.021 392.328 250.181 389.47 249.391C389.863 250.246 390.784 250.824 392.423 251.291L392.572 251.332L392.678 251.442C393.309 252.092 393.595 252.73 393.551 253.392C393.474 254.571 392.347 255.459 391.158 256.402C389.592 257.64 387.972 258.921 388.312 260.905C388.415 261.17 388.501 261.26 388.531 261.285C388.874 261.226 389.667 260.096 390.008 259.607C390.34 259.134 390.627 258.724 390.894 258.469L390.999 258.369L391.139 258.33C392.28 258.022 394.972 257.423 395.351 258.564C395.596 259.308 394.819 259.96 392.667 260.805C389.18 263.011 389.347 263.965 389.6 265.406C389.843 266.782 390.171 268.666 387.884 271.852C387.619 272.373 387.353 272.733 386.941 272.816C386.53 272.896 386.242 272.65 386.053 272.486C385.864 272.321 385.786 272.267 385.649 272.282C385.4 272.31 384.63 272.615 382.928 274.865C381.888 276.953 380 280.778 381.114 282.672C381.565 283.437 382.533 283.859 383.992 283.927L384.158 283.936L384.294 284.032C389.111 287.422 392.492 289.93 394.959 291.76C399.354 295.022 402.94 296.487 405.718 296.156C408.315 295.847 412.667 295.332 421.026 295.631L421.126 295.633L421.218 295.669C421.965 295.969 422.531 296.184 422.946 296.34C423.858 296.687 424.201 296.817 424.074 297.339C424.017 297.575 423.895 297.695 423.712 297.745C427.117 299.275 430.94 299.905 432.826 298.493C434.147 297.503 434.417 295.562 433.63 292.72L433.626 292.693C433.236 290.965 431.964 288.132 430.584 287.303L430.13 287.031L430.367 286.557C430.682 285.924 430.631 283.93 430.464 282.537C430.294 282.63 430.115 282.689 429.916 282.721C428.761 282.895 427.633 281.841 426.726 280.994C426.475 280.758 426.237 280.534 426.041 280.383C424.892 279.879 422.361 279.637 420.505 279.46C419.79 279.392 419.173 279.334 418.696 279.269C416.49 279.257 414.209 276.083 412.002 273.012C410.445 270.846 408.509 268.15 407.42 268.142C407.292 268.141 407.089 268.179 406.842 268.515L406.038 269.603L405.816 268.268C405.61 267.032 405.765 266.133 406.285 265.516C407.072 264.582 408.455 264.57 409.793 264.561C411.341 264.551 412.409 264.483 412.848 263.691C412.799 262.955 412.962 262.428 413.347 262.08C414.001 261.488 415.006 261.69 415.897 261.876C415.998 261.528 416.179 261.251 416.432 261.048C417.137 260.484 418.184 260.68 419.196 260.867C419.847 260.988 420.52 261.12 420.998 261.02L421.089 261.006L421.178 261.014C422.043 261.124 422.634 261.395 422.983 261.849C423.368 262.351 423.343 262.932 423.293 263.339L423.295 263.339C423.612 263.288 424.06 263.262 424.38 263.577C424.744 263.936 424.666 264.447 424.59 264.942C424.467 265.748 424.341 266.582 425.422 267.299C427.601 268.627 428.559 268.366 429.484 268.113C430.206 267.916 431.024 267.694 432.197 268.221L432.29 268.262L432.362 268.334C432.91 268.87 433.331 269.296 433.669 269.638C434.226 270.203 434.562 270.543 434.748 270.636C434.822 270.673 434.892 270.664 435.292 270.565C435.834 270.433 436.745 270.212 438.468 270.162L438.517 270.164C439.707 270.23 439.924 269.833 440.222 269.282C440.48 268.809 440.833 268.16 441.811 268.151L442.154 268.15L442.319 268.452C443.161 270.008 444.987 270.732 446.321 271.262C447.456 271.712 448.353 272.069 448.385 272.871C448.418 273.666 447.593 274.348 445.114 275.582L444.914 275.682L444.7 275.619C444.186 275.47 443.835 274.814 443.21 273.574C442.904 272.967 442.359 271.888 442.027 271.586C441.969 271.684 441.881 271.874 441.784 272.238C441.891 273.842 442.919 275.411 444.488 276.351C446.044 277.281 447.81 277.398 449.336 276.672L449.452 276.617L449.582 276.617C450.389 276.614 451.159 276.699 451.324 277.331C451.52 278.093 450.604 278.642 449.093 279.474C448.946 279.556 448.803 279.634 448.682 279.702C448.81 283.163 450.421 284.353 451.849 285.409C454.609 287.446 455.878 289.046 449.63 297.845C452.053 299.503 455.101 301.188 458.315 302.965C469.354 309.065 483.066 316.641 481.388 329.208L481.383 329.204ZM391.595 259.393C391.415 259.597 391.179 259.936 390.949 260.263C390.786 260.493 390.624 260.726 390.458 260.95C390.912 260.594 391.454 260.214 392.105 259.805L392.202 259.757C392.972 259.457 393.463 259.216 393.77 259.039C393.294 259.05 392.567 259.142 391.596 259.396L391.595 259.393ZM130.862 94.2178C130.945 94.26 130.99 94.2505 131.008 94.2476C131.408 94.1831 132.03 93.1878 132.484 92.4607C132.656 92.1871 132.829 91.9087 133.007 91.6436C133.002 91.6443 132.998 91.645 132.991 91.6484C132.091 92.053 130.856 93.3187 130.859 94.2181L130.862 94.2178ZM132.494 90.1002C132.634 90.1959 132.772 90.3175 132.915 90.4406L134.314 89.8629L132.652 90.0747C132.593 90.0842 132.541 90.0926 132.494 90.1002ZM114.16 70.4488L115.147 70.6703C115.407 70.7282 115.612 70.6766 115.66 70.5413C115.691 70.4481 115.651 70.3131 115.497 70.1918C115.037 70.3052 114.591 70.3886 114.158 70.4491L114.16 70.4488ZM363.325 274.936C362.538 275.062 361.622 274.834 360.975 274.291L360.495 273.888L360.94 273.448C361.676 272.717 363.201 272.047 364.203 272.014L364.625 271.999L364.764 272.396C365.222 273.719 364.521 274.377 364.197 274.598C363.946 274.771 363.646 274.882 363.323 274.934L363.325 274.936ZM362.429 273.767C362.862 273.872 363.303 273.828 363.549 273.657C363.611 273.614 363.762 273.511 363.767 273.227C363.34 273.328 362.846 273.529 362.427 273.765L362.429 273.767ZM202.213 144.595C201.942 144.639 201.723 144.665 201.598 144.678C198.272 145.033 194.108 144.188 193.319 140.639L193.241 140.285L193.525 140.063C195.065 138.86 199.206 138.237 201.887 138.805C203.129 139.069 203.949 139.561 204.327 140.27L204.666 140.907L203.97 141.091C203.874 141.116 203.727 141.142 203.52 141.177C204.894 141.513 205.522 141.996 205.517 142.686C205.51 143.898 203.373 144.404 202.213 144.591L202.213 144.595ZM194.54 140.763C195.169 142.635 197.14 143.292 198.732 143.509C201.359 143.868 203.833 143.168 204.315 142.701C204.126 142.564 203.493 142.237 201.576 142.007C200.369 141.958 199.64 141.925 199.606 141.272C199.573 140.602 200.132 140.514 202.477 140.176C202.24 140.078 201.962 139.995 201.645 139.927C199.305 139.43 195.95 139.965 194.538 140.763L194.54 140.763Z" fill="white"/>
<path d="M423.502 28.0745C425.068 19.343 430.039 11.5911 437.32 6.52417C444.601 1.45723 453.597 -0.509656 462.329 1.05616C471.27 2.69618 479.196 7.8158 484.367 15.292L476.96 20.4469L436.601 48.5318L429.41 53.7255C426.753 50.0658 424.86 45.9084 423.845 41.5013C422.83 37.0942 422.714 32.5277 423.502 28.0745Z" stroke="white" stroke-width="1.5" stroke-linecap="round" stroke-linejoin="round"/>
<path d="M432.166 29.6281C433.049 24.7918 435.358 20.33 438.796 16.8163C442.235 13.3026 446.646 10.8976 451.462 9.91045C456.278 8.92328 461.279 9.399 465.823 11.2766C470.367 13.1542 474.245 16.3478 476.959 20.4468L436.6 48.5317C434.62 45.8453 433.205 42.7845 432.443 39.5351C431.681 36.2856 431.586 32.9151 432.166 29.6281Z" stroke="white" stroke-width="1.5" stroke-linecap="round" stroke-linejoin="round"/>
<path d="M457.036 34.3115L442.638 13.6212" stroke="white" stroke-width="1.5" stroke-linecap="round" stroke-linejoin="round"/>
<path d="M457.036 34.3115L461.425 9.83639" stroke="white" stroke-width="1.5" stroke-linecap="round" stroke-linejoin="round"/>
<path d="M457.036 34.3115L432.128 29.8447" stroke="white" stroke-width="1.5" stroke-linecap="round" stroke-linejoin="round"/>
<path d="M235.329 243.96C233.973 246.435 232.101 248.591 229.84 250.28C227.578 251.969 224.98 253.152 222.222 253.75C213.341 255.806 202.098 252.157 200.041 243.276C199.077 239.388 199.667 240.719 197.229 231.843C197.07 231.386 198.247 230.722 198.247 230.722C198.247 230.722 200.144 229.552 200.54 230.694C201.253 232.756 202.31 234.681 203.666 236.39C206.221 239.676 209.74 242.081 213.729 243.267C217.719 244.453 221.98 244.36 225.915 243.003C227.821 242.377 229.616 241.452 231.233 240.263C231.746 239.82 232.403 239.579 233.081 239.586C233.759 239.593 234.411 239.848 234.914 240.302C235.418 240.756 235.738 241.379 235.814 242.052C235.89 242.726 235.718 243.405 235.329 243.96Z" stroke="white" stroke-width="1.5" stroke-linecap="round" stroke-linejoin="round"/>
<path d="M203.042 235.327C206.037 236.958 209.404 237.783 212.813 237.722C216.223 237.661 219.558 236.716 222.493 234.979C224.252 233.972 225.837 232.688 227.187 231.177C227.62 230.73 228.191 230.442 228.808 230.358C229.425 230.274 230.052 230.4 230.589 230.715C231.126 231.03 231.542 231.517 231.769 232.096C231.997 232.676 232.024 233.315 231.845 233.911L230.805 236.446" stroke="white" stroke-width="1.5" stroke-linecap="round" stroke-linejoin="round"/>
</g>
<path d="M110.7 219.5C110.705 226.335 108.661 233.015 104.833 238.677C101.004 244.34 95.5671 248.725 89.2224 251.268C82.8778 253.811 75.9169 254.394 69.2376 252.943C62.5583 251.491 56.4672 248.072 51.75 243.125L58.275 236.6L93.825 201.275L100.125 194.75C103.502 197.921 106.185 201.757 108.005 206.017C109.825 210.277 110.743 214.868 110.7 219.5Z" stroke="white" stroke-width="1.5" stroke-linecap="round" stroke-linejoin="round"/>
<path d="M101.7 219.5C101.641 226.144 98.9599 232.496 94.2404 237.174C89.5209 241.851 83.1451 244.475 76.5004 244.475C73.0815 244.505 69.694 243.82 66.5554 242.464C63.4168 241.108 60.5965 239.11 58.2754 236.6L93.8254 201.275C96.3037 203.621 98.2797 206.446 99.6334 209.579C100.987 212.712 101.69 216.087 101.7 219.5Z" stroke="white" stroke-width="1.5" stroke-linecap="round" stroke-linejoin="round"/>
<path d="M75.5996 232.55L73.3496 234.8" stroke="white" stroke-width="1.5" stroke-linecap="round" stroke-linejoin="round"/>
<path d="M91.7998 216.35L89.5498 218.6" stroke="white" stroke-width="1.5" stroke-linecap="round" stroke-linejoin="round"/>
<path d="M87.75 230.525L85.5 228.275" stroke="white" stroke-width="1.5" stroke-linecap="round" stroke-linejoin="round"/>
<defs>
<clipPath id="clip0_2808_7">
<rect width="376" height="357" fill="white" transform="translate(118)"/>
</clipPath>
</defs>
</svg>
