<svg width="76" height="76" viewBox="0 0 76 76" fill="none" xmlns="http://www.w3.org/2000/svg">
<path d="M4.75 38H69.8251V44.175C69.8251 50.2849 67.3979 56.1446 63.0775 60.465C58.7572 64.7854 52.8975 67.2125 46.7875 67.2125H27.7875C21.6776 67.2125 15.8179 64.7854 11.4975 60.465C7.17716 56.1446 4.75 50.2849 4.75 44.175V38Z" stroke="white" stroke-width="1.5" stroke-linecap="round" stroke-linejoin="round"/>
<path d="M6.88745 10.2125H7.83736C12.1836 10.2125 16.3518 11.9391 19.4251 15.0123C22.4983 18.0856 24.2249 22.2538 24.2249 26.6H23.2749C18.9286 26.6 14.7604 24.8735 11.6872 21.8002C8.61392 18.727 6.88745 14.5588 6.88745 10.2125Z" stroke="white" stroke-width="1.5" stroke-linejoin="round"/>
<path d="M30.875 14.725C31.2614 12.6067 32.3738 10.6891 34.0209 9.30213C35.668 7.91512 37.7468 7.14526 39.9 7.125C42.3376 7.18522 44.6588 8.18048 46.3829 9.90465C48.1071 11.6288 49.1023 13.9499 49.1625 16.3876C49.1208 17.3534 48.9612 18.3104 48.6875 19.2375L51.5375 18.7626C53.9751 18.8228 56.2962 19.818 58.0204 21.5421C59.7445 23.2663 60.7397 25.5874 60.7999 28.025" stroke="white" stroke-width="1.5" stroke-linecap="round" stroke-linejoin="round"/>
<path d="M48.2124 28.7375C45.6928 28.7375 43.2765 27.7366 41.4949 25.955C39.7133 24.1734 38.7124 21.757 38.7124 19.2375" stroke="white" stroke-width="1.5" stroke-linecap="round" stroke-linejoin="round"/>
</svg>
