<svg width="400" height="384" viewBox="0 0 400 384" fill="none" xmlns="http://www.w3.org/2000/svg">
<path d="M64.1358 173.598C59.9678 172.145 56.5391 169.11 54.591 165.149C52.6429 161.189 52.3318 156.62 53.7251 152.432L85.1853 60.0658C85.2267 59.9111 85.2784 59.7593 85.34 59.6115C87.2562 55.5486 93.628 51.3555 103.892 47.3472L108.762 45.4058L102.492 43.2703C101.919 43.0753 101.448 42.661 101.181 42.1185C100.914 41.5759 100.874 40.9495 101.069 40.3772C101.264 39.8048 101.678 39.3333 102.221 39.0665C102.763 38.7996 103.389 38.7591 103.962 38.9541L139.491 51.0553L160.468 41.5693C160.995 41.3251 161.596 41.2937 162.146 41.4816C162.442 41.5834 162.713 41.7463 162.941 41.9596C163.17 42.1729 163.351 42.4318 163.474 42.7197C163.598 42.9922 163.667 43.2867 163.677 43.5861C163.686 43.8855 163.636 44.1838 163.529 44.4636C163.421 44.7433 163.26 44.999 163.053 45.2155C162.846 45.4321 162.598 45.6053 162.323 45.7251L145.715 53.1754L164.706 59.6438C165.086 59.6479 165.459 59.7419 165.795 59.918C166.131 60.0942 166.42 60.3474 166.64 60.6571C166.859 60.9668 167.001 61.3241 167.056 61.6996C167.11 62.075 167.075 62.4581 166.952 62.8173C166.83 63.1764 166.624 63.5014 166.352 63.7656C166.08 64.0299 165.749 64.2258 165.386 64.3373C165.023 64.4489 164.64 64.4728 164.266 64.4072C163.892 64.3416 163.539 64.1884 163.236 63.96L156.966 61.8245L159.662 66.3424C165.291 75.8655 167.81 82.9853 166.887 87.1837C166.833 87.4016 166.761 87.6145 166.67 87.8197L135.21 180.186C133.75 184.373 130.694 187.814 126.708 189.757C122.722 191.7 118.129 191.988 113.931 190.558L64.1358 173.598ZM58.0413 153.902C57.5299 155.403 57.3211 156.991 57.4271 158.573C57.5331 160.156 57.9517 161.701 58.6588 163.121C59.3658 164.541 60.3472 165.806 61.5463 166.844C62.7454 167.882 64.1383 168.672 65.6445 169.168L115.849 186.268C118.872 187.291 122.176 187.083 125.047 185.688C127.918 184.294 130.124 181.825 131.189 178.817L143.205 143.537L142.498 142.637L142.362 142.591C138.493 137.56 133.232 133.775 127.232 131.708C120.12 129.388 112.428 129.568 105.432 132.218C100.142 133.807 94.6067 134.422 89.0965 134.032L90.644 129.488C95.1215 129.665 99.5974 129.099 103.89 127.814C110.471 125.305 117.634 124.74 124.526 126.189C131.418 127.637 137.748 131.037 142.761 135.983L144.941 138.145L149.707 124.152L148.999 123.252L148.863 123.205C144.994 118.188 139.739 114.414 133.748 112.353C126.636 110.032 118.944 110.212 111.949 112.863C106.658 114.452 101.123 115.067 95.6128 114.677L97.1603 110.133C101.638 110.31 106.114 109.744 110.407 108.459C116.987 105.949 124.15 105.385 131.042 106.834C137.934 108.282 144.264 111.682 149.278 116.628L151.457 118.79L162.521 86.3052C164.03 81.8754 155.638 67.6594 149.99 59.7527L149.629 59.2494L116.236 47.8755L115.643 48.0538C106.366 50.8771 91.0412 57.0153 89.5324 61.445L75.4117 102.903L76.6586 103.708C79.2953 105.431 82.1297 106.831 85.1008 107.876L83.6307 112.193C80.9492 111.238 78.3629 110.035 75.9057 108.598L73.7888 107.37L68.744 122.181L69.991 122.986C72.6336 124.699 75.4668 126.098 78.4332 127.155L76.9631 131.471C74.2816 130.517 71.6952 129.313 69.2381 127.876L67.1212 126.648L58.0413 153.902Z" fill="white"/>
<path d="M139.92 18.0153C141.488 18.5494 143.193 17.7111 143.727 16.1428C144.261 14.5746 143.423 12.8702 141.854 12.3361C140.286 11.8019 138.582 12.6402 138.047 14.2085C137.513 15.7768 138.352 17.4811 139.92 18.0153Z" fill="white"/>
<path d="M125.363 27.2547C124.757 27.0481 124.225 26.6663 123.836 26.1575C123.446 25.6488 123.216 25.036 123.175 24.3965C123.134 23.7571 123.283 23.1198 123.604 22.5652C123.925 22.0106 124.403 21.5636 124.978 21.2808C125.553 20.998 126.199 20.8921 126.834 20.9763C127.469 21.0606 128.065 21.3314 128.547 21.7544C129.028 22.1773 129.373 22.7336 129.538 23.3527C129.703 23.9718 129.681 24.6259 129.475 25.2325C129.338 25.6352 129.122 26.007 128.842 26.3266C128.561 26.6462 128.22 26.9073 127.838 27.0951C127.456 27.2829 127.041 27.3936 126.617 27.421C126.192 27.4484 125.766 27.3919 125.363 27.2547Z" fill="white"/>
<path d="M136.989 37.9325C138.871 38.5735 140.916 37.5675 141.557 35.6856C142.198 33.8037 141.192 31.7585 139.31 31.1175C137.428 30.4765 135.383 31.4825 134.742 33.3644C134.101 35.2463 135.107 37.2916 136.989 37.9325Z" fill="white"/>
<path d="M234.584 344.046C234.265 344.119 233.934 344.129 233.61 344.075C233.287 344.021 232.978 343.904 232.7 343.73C232.422 343.557 232.181 343.33 231.991 343.064C231.801 342.797 231.665 342.496 231.592 342.177C231.518 341.858 231.509 341.528 231.563 341.205C231.618 340.882 231.736 340.573 231.91 340.296C232.084 340.018 232.311 339.778 232.578 339.588C232.846 339.398 233.148 339.262 233.467 339.188L261.166 332.818L254.198 302.525L252.267 302.807C248.083 303.459 243.844 303.694 239.614 303.51L239.46 303.546L239.102 303.628L238.739 303.577C236.543 303.447 234.357 303.185 232.192 302.795L230.041 302.24C193.961 295.276 188.589 275.437 188.077 273.213C179.455 239.828 189.728 198.867 190.17 197.15C190.278 196.705 190.508 196.299 190.834 195.977C191.16 195.655 191.569 195.429 192.016 195.326L268.245 177.794C268.692 177.688 269.159 177.711 269.594 177.858C270.029 178.006 270.413 178.273 270.703 178.628C271.875 179.973 298.962 212.234 305.797 246.057C306.344 248.434 310.295 269.247 279.441 291.578L277.708 292.838C276.893 293.402 276.047 293.946 275.079 294.546L274.492 294.923L272.947 295.951L272.435 296.069L272.076 296.152C268.532 298.071 264.809 299.64 260.959 300.835L259.092 301.399L266.06 331.692L293.758 325.322C294.114 325.107 294.516 324.98 294.93 324.95C295.345 324.92 295.76 324.989 296.143 325.15C296.526 325.312 296.864 325.561 297.131 325.879C297.398 326.197 297.586 326.573 297.679 326.977C297.772 327.381 297.768 327.802 297.666 328.204C297.565 328.606 297.369 328.979 297.096 329.291C296.822 329.604 296.478 329.847 296.092 330.002C295.706 330.156 295.289 330.217 294.875 330.179L234.584 344.046ZM189.751 250.11C190.033 257.434 191.065 264.71 192.83 271.823C193.083 272.923 198.074 293.335 238.298 298.376C244.129 298.793 249.991 298.352 255.695 297.066C261.506 295.741 267.064 293.481 272.15 290.375C306.279 267.856 300.944 247.361 300.872 247.163C299.347 239.94 297.084 232.894 294.119 226.133L293.424 224.516L277.358 228.211L287.992 240.193C288.401 240.701 288.606 241.343 288.566 241.995C288.526 242.646 288.245 243.259 287.777 243.715L265.624 263.29C265.321 263.574 264.947 263.771 264.542 263.862C264.101 263.952 263.644 263.927 263.216 263.79C262.788 263.652 262.402 263.408 262.096 263.079L257.359 257.736L259.841 279.667C259.906 280.324 259.72 280.982 259.32 281.509C258.958 281.952 258.462 282.264 257.906 282.4L257.624 282.465L228.257 285.801C227.605 285.845 226.96 285.645 226.448 285.24C225.935 284.836 225.593 284.255 225.487 283.611L222.168 254.282C222.128 253.686 222.293 253.093 222.637 252.603C222.981 252.113 223.481 251.754 224.057 251.587L224.364 251.516L249.315 248.685L242.513 241.044C242.078 240.54 241.851 239.89 241.879 239.225C241.939 238.571 242.242 237.964 242.728 237.522L264.875 217.92C265.178 217.637 265.552 217.44 265.957 217.349C266.181 217.271 266.413 217.218 266.649 217.189C267.312 217.241 267.93 217.541 268.38 218.029L273.559 223.89L291.29 219.812L290.061 217.403C283.982 205.557 276.789 194.315 268.58 183.827L267.746 182.78L194.618 199.599L194.35 200.899C191.535 213.92 189.968 227.178 189.671 240.493L189.644 243.19L230.64 233.761C229.885 235.45 229.433 237.258 229.306 239.102L189.718 248.207L189.751 250.11ZM230.171 280.515L254.592 277.725L251.846 253.351L227.399 256.148L230.171 280.515ZM247.886 239.539L264.193 257.887L282.601 241.621L266.289 223.248L247.886 239.539Z" fill="white"/>
<circle cx="83.5" cy="280.5" r="10.5" stroke="white" stroke-width="2"/>
<circle cx="91.5" cy="246.5" r="6.5" stroke="white" stroke-width="2"/>
<circle cx="113.5" cy="263.5" r="4.5" stroke="white" stroke-width="2"/>
<circle cx="11.5" cy="157.5" r="10.5" stroke="white" stroke-width="2"/>
<circle cx="361.128" cy="251.037" r="10.5" transform="rotate(-83.8528 361.128 251.037)" stroke="white" stroke-width="2"/>
<circle cx="328.181" cy="239.442" r="6.5" transform="rotate(-83.8528 328.181 239.442)" stroke="white" stroke-width="2"/>
<circle cx="347.439" cy="219.389" r="4.5" transform="rotate(-83.8528 347.439 219.389)" stroke="white" stroke-width="2"/>
<circle cx="337.5" cy="305.5" r="23.5" stroke="white" stroke-width="2"/>
<circle cx="269.5" cy="41.5" r="4.5" stroke="white" stroke-width="2"/>
<circle cx="228.5" cy="91.5" r="17.5" stroke="white" stroke-width="2"/>
<circle cx="269.5" cy="74.5" r="9.5" stroke="white" stroke-width="2"/>
</svg>
