<svg width="58" height="58" viewBox="0 0 58 58" fill="none" xmlns="http://www.w3.org/2000/svg">
<circle cx="29" cy="29" r="26.5" stroke="white" stroke-width="5"/>
<path d="M23.6514 28.9356H16.7812C16.3516 28.9356 16 29.2872 16 29.7169V31.2794C16 31.7091 16.3516 32.0606 16.7812 32.0606H23.7246C24.501 32.0606 25.2285 32.5929 25.3555 33.3595C25.5166 34.336 24.7646 35.1856 23.8125 35.1856C23.124 35.1856 22.5381 34.7364 22.3281 34.1163C22.2256 33.8087 21.9082 33.6231 21.5859 33.6231H19.9844C19.5059 33.6231 19.1201 34.0528 19.208 34.5216C19.6279 36.6749 21.5322 38.3106 23.8076 38.3106C26.5957 38.3106 28.8223 35.8644 28.4561 33.0079C28.1582 30.6446 26.0293 28.9356 23.6514 28.9356ZM16.7812 27.3731H33.1875C36.1025 27.3731 38.4023 24.6974 37.7676 21.6749C37.3965 19.9073 35.9658 18.4767 34.1982 18.1056C31.4932 17.5392 29.0664 19.3214 28.5879 21.7921C28.4951 22.2608 28.8857 22.6856 29.3594 22.6856H30.9609C31.2881 22.6856 31.6006 22.5001 31.7031 22.1925C31.9131 21.5724 32.499 21.1231 33.1875 21.1231C34.1348 21.1231 34.8916 21.9727 34.7305 22.9493C34.6035 23.7159 33.8809 24.2481 33.0996 24.2481H16.7812C16.3516 24.2481 16 24.5997 16 25.0294V26.5919C16 27.0216 16.3516 27.3731 16.7812 27.3731ZM35.5312 28.9356H27.8994C28.8418 29.7462 29.5205 30.8302 29.8428 32.0606H35.5312C36.8252 32.0606 37.875 33.1104 37.875 34.4044C37.875 35.6983 36.8252 36.7481 35.5312 36.7481C34.6572 36.7481 33.9053 36.2647 33.5 35.5567C33.3584 35.3126 33.0752 35.1856 32.792 35.1856H31.1416C30.6094 35.1856 30.2139 35.713 30.3945 36.2159C31.2637 38.6866 33.8369 40.3565 36.7129 39.7462C38.7246 39.3214 40.3799 37.7149 40.8486 35.7081C41.6836 32.1339 38.9736 28.9356 35.5312 28.9356Z" fill="white"/>
</svg>
