<svg width="58" height="58" viewBox="0 0 58 58" fill="none" xmlns="http://www.w3.org/2000/svg">
<path d="M46.8305 24.4069L34.5651 12.1696C34.3391 11.9435 33.9672 11.9435 33.7411 12.1696L31.2618 14.6418C31.0358 14.8679 31.0358 15.2398 31.2618 15.4659L32.0785 16.2754L14.4025 33.9167C11.5731 36.739 11.1137 41.3553 13.717 44.3818C15.2192 46.1321 17.3266 47.0072 19.434 47C21.3591 47 23.2843 46.2707 24.75 44.8048L42.7104 26.8864L43.5271 27.6959C43.7532 27.922 44.1251 27.922 44.3511 27.6959L46.8305 25.2237C47.0565 25.0049 47.0565 24.6329 46.8305 24.4069ZM35.185 29.5045H23.7364L34.5287 18.7331L40.253 24.4433L35.185 29.5045Z" fill="white"/>
<circle cx="29" cy="29" r="26.5" stroke="white" stroke-width="5"/>
</svg>
