<svg width="76" height="76" viewBox="0 0 76 76" fill="none" xmlns="http://www.w3.org/2000/svg">
<path d="M29.925 4.75H57.475C60.6874 4.75 63.7683 6.02618 66.0398 8.29771C68.3113 10.5692 69.5875 13.6502 69.5875 16.8626M69.5875 16.8626H30.875C23.9462 16.8626 17.3012 19.615 12.4018 24.5144C7.50243 29.4138 4.75 36.0588 4.75 42.9876C4.75 49.9164 7.50243 56.5613 12.4018 61.4607C17.3012 66.3601 23.9462 69.1126 30.875 69.1126H66.025V54.15L45.3625 60.8001C42.8405 61.6553 40.1871 62.0574 37.525 61.9876C34.4793 61.9882 31.5546 60.7947 29.3789 58.6634C27.2031 56.532 25.9496 53.6326 25.8875 50.5875C25.8875 47.501 27.1136 44.5411 29.296 42.3586C31.4785 40.1762 34.4386 38.9501 37.525 38.9501H47.5C53.3579 38.9501 58.976 36.6229 63.1182 32.4807C67.2604 28.3385 69.5875 22.7206 69.5875 16.8626Z" stroke="white" stroke-width="1.5" stroke-linecap="round" stroke-linejoin="round"/>
<path d="M34.9126 16.8626V39.1875" stroke="white" stroke-width="1.5" stroke-linecap="round" stroke-linejoin="round"/>
<path d="M10.6875 26.3626L28.025 43.7001" stroke="white" stroke-width="1.5" stroke-linecap="round" stroke-linejoin="round"/>
<path d="M7.125 53.9125H26.3625" stroke="white" stroke-width="1.5" stroke-linecap="round" stroke-linejoin="round"/>
<path d="M38.95 62.4625V69.1126" stroke="white" stroke-width="1.5" stroke-linecap="round" stroke-linejoin="round"/>
<path d="M47.975 27.7875C49.549 27.7875 50.8251 26.5115 50.8251 24.9375C50.8251 23.3635 49.549 22.0875 47.975 22.0875C46.401 22.0875 45.125 23.3635 45.125 24.9375C45.125 26.5115 46.401 27.7875 47.975 27.7875Z" fill="white"/>
</svg>
