<svg width="58" height="58" viewBox="0 0 58 58" fill="none" xmlns="http://www.w3.org/2000/svg">
<path d="M29 0C12.9798 0 0 12.9798 0 29C0 45.0202 12.9798 58 29 58C45.0202 58 58 45.0202 58 29C58 12.9798 45.0202 0 29 0ZM10.571 20.5339C11.3544 18.4758 13.6931 17.4117 15.8214 17.973L16.6516 18.1952L16.8855 17.3649C17.4702 15.2484 19.5516 13.7516 21.7383 14.1024C24.2407 14.5 25.7609 16.9323 25.106 19.306L22.8375 27.4798C22.6972 28.006 22.1476 28.3218 21.6097 28.1815L13.4008 26.0532C11.0153 25.4218 9.67056 22.896 10.571 20.5339ZM29 49.5806C21.9137 49.5806 13.2722 45.102 12.1847 38.6706C11.9508 37.2907 13.2605 36.1564 14.6052 36.5774C18.1367 37.7117 23.3871 38.3548 29 38.3548C34.6129 38.3548 39.8633 37.7117 43.3948 36.5774C44.7278 36.1564 46.0375 37.2907 45.8153 38.6706C44.7278 45.102 36.0863 49.5806 29 49.5806ZM44.5992 26.0415L36.3903 28.1698C35.8641 28.3101 35.3145 27.9944 35.1625 27.4681L32.894 19.2944C32.2391 16.9206 33.7593 14.4883 36.2617 14.0907C38.4367 13.7399 40.5181 15.2367 41.1145 17.3532L41.3484 18.1835L42.1786 17.9613C44.3069 17.4117 46.6456 18.4641 47.429 20.5222C48.3294 22.896 46.9847 25.4218 44.5992 26.0415Z" fill="white"/>
</svg>
