<svg width="36" height="36" viewBox="0 0 36 36" fill="none" xmlns="http://www.w3.org/2000/svg">
<path d="M30.608 5.23125C27.2411 1.85625 22.7571 0 17.992 0C8.15625 0 0.152679 8.00357 0.152679 17.8393C0.152679 20.9812 0.972321 24.0509 2.53125 26.7589L0 36L9.45804 33.517C12.0616 34.9393 14.9946 35.6866 17.9839 35.6866H17.992C27.8196 35.6866 36 27.683 36 17.8473C36 13.0821 33.975 8.60625 30.608 5.23125ZM17.992 32.6813C15.3241 32.6813 12.7125 31.9661 10.4384 30.6161L9.9 30.2946L4.29107 31.7652L5.78571 26.2929L5.43214 25.7304C3.94554 23.3679 3.16607 20.6437 3.16607 17.8393C3.16607 9.66696 9.81964 3.01339 18 3.01339C21.9616 3.01339 25.6821 4.55625 28.4786 7.36071C31.275 10.1652 32.9946 13.8857 32.9866 17.8473C32.9866 26.0277 26.1643 32.6813 17.992 32.6813ZM26.1241 21.5759C25.6821 21.3509 23.4884 20.2741 23.0786 20.1295C22.6688 19.9768 22.3714 19.9045 22.0741 20.3545C21.7768 20.8045 20.925 21.8009 20.6598 22.1063C20.4027 22.4036 20.1375 22.4438 19.6955 22.2188C17.0759 20.9089 15.3563 19.8804 13.6286 16.9152C13.1705 16.1277 14.0866 16.1839 14.9384 14.4804C15.083 14.183 15.0107 13.9259 14.8982 13.7009C14.7857 13.4759 13.8938 11.2821 13.5241 10.3902C13.1625 9.52232 12.7929 9.64286 12.5196 9.62679C12.2625 9.61071 11.9652 9.61071 11.6679 9.61071C11.3705 9.61071 10.8884 9.72321 10.4786 10.1652C10.0687 10.6152 8.91964 11.692 8.91964 13.8857C8.91964 16.0795 10.5188 18.2009 10.7357 18.4982C10.9607 18.7955 13.8777 23.2955 18.3536 25.2321C21.1821 26.4536 22.2911 26.558 23.7054 26.3491C24.5652 26.2205 26.3411 25.2723 26.7107 24.2277C27.0804 23.183 27.0804 22.2911 26.9679 22.1063C26.8634 21.9054 26.5661 21.7929 26.1241 21.5759Z" fill="white"/>
</svg>
